<svg width="50" height="50" viewBox="0 0 50 50" fill="none" xmlns="http://www.w3.org/2000/svg">
<g filter="url(#filter0_d_3016_3298)">
<circle cx="25" cy="25" r="21" fill="white"/>
<path fill-rule="evenodd" clip-rule="evenodd" d="M32 18.875C32 18.3918 31.6082 18 31.125 18H25C24.5168 18 24.125 18.3918 24.125 18.875C24.125 19.3582 24.5168 19.75 25 19.75C26.4807 19.75 27.2223 21.5403 26.1753 22.5873L18.2563 30.5063C17.9146 30.848 17.9146 31.402 18.2563 31.7437C18.598 32.0854 19.152 32.0854 19.4937 31.7437L27.4127 23.8248C28.4597 22.7777 30.25 23.5193 30.25 25C30.25 25.4832 30.6418 25.875 31.125 25.875C31.6082 25.875 32 25.4832 32 25V18.875Z" fill="#453C3C"/>
</g>
<defs>
<filter id="filter0_d_3016_3298" x="0" y="0" width="50" height="50" filterUnits="userSpaceOnUse" color-interpolation-filters="sRGB">
<feFlood flood-opacity="0" result="BackgroundImageFix"/>
<feColorMatrix in="SourceAlpha" type="matrix" values="0 0 0 0 0 0 0 0 0 0 0 0 0 0 0 0 0 0 127 0" result="hardAlpha"/>
<feOffset/>
<feGaussianBlur stdDeviation="2"/>
<feComposite in2="hardAlpha" operator="out"/>
<feColorMatrix type="matrix" values="0 0 0 0 0.960784 0 0 0 0 0.905882 0 0 0 0 0.905882 0 0 0 0.2 0"/>
<feBlend mode="normal" in2="BackgroundImageFix" result="effect1_dropShadow_3016_3298"/>
<feBlend mode="normal" in="SourceGraphic" in2="effect1_dropShadow_3016_3298" result="shape"/>
</filter>
</defs>
</svg>
