<svg width="15" height="15" viewBox="0 0 15 15" fill="none" xmlns="http://www.w3.org/2000/svg">
<path d="M2.36224 8.24991H2.36339L1.12747 7.34628C0.869338 7.15756 0.677453 6.89209 0.579217 6.5878C0.480981 6.2835 0.481419 5.95594 0.580469 5.65191C0.67952 5.34788 0.872115 5.08292 1.13075 4.89489C1.38922 4.70697 1.70043 4.60549 2.01998 4.60491H4.75049H5.11517L5.22658 4.25766L6.05596 1.67266L6.056 1.67253C6.15409 1.3665 6.34684 1.09953 6.60645 0.910125C6.86606 0.720716 7.17912 0.618652 7.50049 0.618652C7.82185 0.618652 8.13491 0.720716 8.39452 0.910124C8.65413 1.09953 8.84688 1.3665 8.94497 1.67253L8.94502 1.67266L9.77439 4.25766L9.8858 4.60491H10.2505H12.9835C13.303 4.60549 13.6143 4.70697 13.8727 4.89489C14.1314 5.08292 14.324 5.34788 14.423 5.65191C14.5221 5.95594 14.5225 6.2835 14.4243 6.5878C14.326 6.89201 14.1342 7.15742 13.8762 7.34613C13.8762 7.34617 13.8761 7.3462 13.8761 7.34624C13.8761 7.34625 13.876 7.34627 13.876 7.34628L11.6512 8.97113L11.3592 9.18442L11.4703 9.52855L12.3153 12.1454C12.4139 12.4507 12.4131 12.7795 12.3131 13.0843C12.2131 13.3892 12.0189 13.6545 11.7586 13.8421C11.4983 14.0297 11.1853 14.1299 10.8644 14.1283C10.5436 14.1268 10.2315 14.0235 9.973 13.8334L9.97283 13.8333L7.79658 12.2339L7.50027 12.0161L7.20411 12.2341L5.02848 13.8353L5.02846 13.8353L5.02383 13.8388C4.76816 14.0316 4.45704 14.1366 4.13683 14.1382C3.81663 14.1398 3.50447 14.0379 3.24688 13.8477L3.24696 13.8476L3.23748 13.8409C2.97537 13.6566 2.77985 13.3925 2.68007 13.088C2.58028 12.7835 2.58158 12.4549 2.68376 12.1512L2.68379 12.1512L2.68567 12.1454L3.53067 9.52855L3.64179 9.18442L3.34976 8.97113L2.36224 8.24991Z" fill="white" stroke="#FFA800"/>
</svg>
