<svg width="15" height="15" viewBox="0 0 15 15" fill="none" xmlns="http://www.w3.org/2000/svg">
<path d="M0.829862 7.74991L3.05486 9.37491L2.20986 11.9918C2.07331 12.3977 2.07158 12.8368 2.20493 13.2437C2.33828 13.6506 2.59958 14.0036 2.94986 14.2499C3.29414 14.5041 3.71136 14.6403 4.13933 14.6382C4.56731 14.6361 4.98314 14.4957 5.32486 14.238L7.50049 12.6368L9.67674 14.2362C10.0204 14.4889 10.4354 14.6262 10.862 14.6283C11.2886 14.6304 11.7049 14.4972 12.051 14.2477C12.3971 13.9983 12.6552 13.6456 12.7882 13.2402C12.9212 12.8349 12.9222 12.3978 12.7911 11.9918L11.9461 9.37491L14.1711 7.74991C14.5143 7.49898 14.7695 7.146 14.9001 6.7414C15.0307 6.3368 15.0301 5.90128 14.8984 5.49703C14.7667 5.09278 14.5106 4.74049 14.1667 4.49048C13.8229 4.24046 13.4088 4.10552 12.9836 4.10491H10.2505L9.42111 1.51991C9.29069 1.11301 9.0344 0.758044 8.68922 0.506201C8.34403 0.254358 7.92778 0.118652 7.50049 0.118652C7.07319 0.118652 6.65694 0.254358 6.31176 0.506201C5.96657 0.758044 5.71029 1.11301 5.57986 1.51991L4.75049 4.10491H2.01986C1.5947 4.10552 1.18061 4.24046 0.836724 4.49048C0.492842 4.74049 0.236762 5.09278 0.105063 5.49703C-0.0266369 5.90128 -0.0272199 6.3368 0.103397 6.7414C0.234014 7.146 0.48915 7.49898 0.832362 7.74991H0.829862Z" fill="#FFA800"/>
</svg>
