<svg width="28" height="20" viewBox="0 0 28 20" fill="none" xmlns="http://www.w3.org/2000/svg">
<path d="M0 1.42857C0 0.639593 0.626801 0 1.4 0H26.6C27.3732 0 28 0.639596 28 1.42857C28 2.21755 27.3732 2.85714 26.6 2.85714L1.4 2.85714C0.626801 2.85714 0 2.21755 0 1.42857Z" fill="#453C3C"/>
<path d="M0 10C0 9.21102 0.626801 8.57143 1.4 8.57143L26.6 8.57143C27.3732 8.57143 28 9.21102 28 10C28 10.789 27.3732 11.4286 26.6 11.4286L1.4 11.4286C0.626801 11.4286 0 10.789 0 10Z" fill="#453C3C"/>
<path d="M1.4 17.1429C0.626801 17.1429 0 17.7824 0 18.5714C0 19.3604 0.626801 20 1.4 20L26.6 20C27.3732 20 28 19.3604 28 18.5714C28 17.7824 27.3732 17.1429 26.6 17.1429L1.4 17.1429Z" fill="#453C3C"/>
</svg>
